<svg xmlns="http://www.w3.org/2000/svg" viewBox="0 -0.5 16 16" shape-rendering="crispEdges">
<metadata>Made with Pixels to Svg https://codepen.io/shshaw/pen/XbxvNj</metadata>
<path stroke="#dce4f6" d="M3 0h1M10 0h1M0 11h1M15 11h1M0 12h1M15 12h1M1 13h2M6 13h5M14 13h1M3 14h4M10 14h4" />
<path stroke="#ffffff" d="M2 1h1M9 1h1M14 7h1M1 8h1M15 8h1" />
<path stroke="#90a4af" d="M3 1h1M10 1h1M3 2h1M10 2h2M3 3h1M10 3h2M4 4h1" />
<path stroke="#e6ecf8" d="M4 1h1M11 1h1M2 2h1M4 2h2M9 2h1M12 2h1M2 3h1M4 3h2M9 3h1M12 3h1M2 4h1M5 4h6M12 4h1M2 5h12M2 6h2M5 6h6M12 6h2M2 7h3M6 7h4M11 7h3M2 8h3M6 8h4M11 8h4M0 9h16M0 10h2M3 10h2M6 10h2M9 10h1M11 10h2M14 10h2M1 11h5M8 11h1M10 11h5M1 12h14M3 13h3M11 13h3" />
<path stroke="#9badb7" d="M3 4h1M11 4h1" />
<path stroke="#3f3f74" d="M4 6h1M11 6h1M5 7h1M10 7h1M5 8h1M10 8h1M5 10h1M8 10h1M10 10h1M6 11h2M9 11h1" />
<path stroke="#f098b4" d="M2 10h1M13 10h1" />
</svg>